<?xml version="1.0" standalone="no"?>
<!DOCTYPE svg PUBLIC "-//W3C//DTD SVG 20010904//EN"
 "http://www.w3.org/TR/2001/REC-SVG-20010904/DTD/svg10.dtd">
<svg version="1.0" xmlns="http://www.w3.org/2000/svg"
 width="266.000000pt" height="266.000000pt" viewBox="0 0 266.000000 266.000000"
 preserveAspectRatio="xMidYMid meet">
<metadata>
Created by potrace 1.11, written by Peter Selinger 2001-2013
</metadata>
<g transform="translate(0.000000,266.000000) scale(0.100000,-0.100000)"
fill="#000000" stroke="none">
<path d="M1325 2630 c-18 -19 -18 -23 0 -99 13 -59 16 -101 12 -163 -10 -147
-46 -255 -216 -644 -51 -115 -96 -218 -101 -229 -13 -30 -56 -151 -80 -225
-59 -183 -81 -407 -53 -545 32 -156 127 -288 248 -344 85 -40 140 -51 231 -47
178 9 328 103 391 245 56 126 24 331 -51 331 -51 -1 -68 -37 -49 -108 15 -57
13 -128 -6 -174 -19 -49 -88 -114 -154 -144 -54 -25 -74 -29 -152 -29 -76 0
-99 4 -146 26 -145 68 -213 211 -205 434 2 61 7 117 10 125 3 8 7 26 10 40 21
130 117 384 269 720 86 189 150 378 168 492 19 124 -2 296 -42 345 -17 20 -63
16 -84 -7z"/>
<path d="M1061 2356 c-7 -9 -10 -28 -6 -48 25 -134 -6 -245 -175 -620 -217
-479 -272 -664 -265 -885 8 -213 107 -389 286 -509 84 -56 228 -124 263 -124
28 0 50 29 40 54 -4 9 -56 40 -118 70 -215 102 -328 226 -370 404 -14 59 -14
222 -1 287 38 187 77 290 282 750 75 168 132 323 149 405 11 57 6 155 -10 194
-11 27 -21 36 -39 36 -14 0 -30 -6 -36 -14z"/>
<path d="M1524 2335 c-20 -48 -17 -155 5 -250 23 -96 55 -175 194 -485 190
-426 231 -560 230 -765 0 -116 -3 -137 -26 -198 -24 -62 -60 -121 -104 -173
-25 -28 -145 -124 -156 -124 -5 0 -21 -8 -35 -18 -15 -10 -58 -31 -95 -47 -74
-31 -94 -53 -77 -85 16 -30 53 -25 157 25 351 166 485 434 410 815 -30 148
-108 362 -220 600 -122 261 -191 441 -204 534 -9 63 -9 70 0 130 8 56 -3 76
-40 76 -18 0 -28 -9 -39 -35z"/>
<path d="M673 1849 c-8 -8 -8 -21 2 -49 15 -42 12 -125 -6 -194 -5 -22 -37
-125 -69 -228 -53 -168 -96 -318 -106 -373 -39 -215 -27 -401 33 -537 64 -143
200 -276 368 -360 80 -40 233 -98 259 -98 15 0 26 7 29 20 6 24 8 23 -84 56
-253 90 -422 219 -505 383 -49 98 -64 181 -60 326 4 164 22 245 127 575 60
190 86 309 83 376 -3 84 -39 135 -71 103z"/>
<path d="M1934 1829 c-37 -72 -20 -189 65 -458 102 -320 127 -433 130 -585 7
-341 -167 -555 -570 -701 -76 -27 -91 -38 -82 -62 8 -21 45 -15 141 21 173 66
278 131 383 235 74 74 118 146 156 253 21 62 26 94 29 208 4 188 -15 287 -125
639 -87 274 -100 351 -75 422 21 61 -23 84 -52 28z"/>
</g>
</svg>
